<svg width="80" height="232" viewBox="0 0 80 232" fill="none" xmlns="http://www.w3.org/2000/svg">
<g id="character-1">
<path id="Vector" d="M19.1606 49.0299C18.3217 50.8667 17.4386 52.8889 16.6704 54.8493C15.9021 56.8097 15.1162 58.8319 14.4362 60.8453C13.0479 64.8132 11.9905 68.8892 11.2748 73.0316L11.0806 74.3297C11.062 74.5524 11.083 74.7766 11.1424 74.992C11.3508 75.7239 11.679 76.4162 12.1137 77.0407C13.2478 78.6574 14.5633 80.1388 16.0346 81.4561C17.5857 82.8989 19.2129 84.2578 20.9091 85.527C22.6046 86.8339 24.3884 88.1055 26.1457 89.3065L24.4943 92.4061C20.2982 90.5778 16.3153 88.2946 12.6171 85.5976C10.6441 84.1587 8.86348 82.4731 7.3187 80.5818C6.40304 79.456 5.689 78.1803 5.20818 76.8111C4.92861 75.9558 4.78556 75.0618 4.7843 74.1619C4.7843 73.95 4.7843 73.6409 4.7843 73.4908V73.0581L4.87261 72.175C5.37887 67.5743 6.34627 63.0361 7.76024 58.6288C8.44903 56.4565 9.18197 54.2929 10.0209 52.1824C10.8598 50.0719 11.7252 48.0055 12.7937 45.8597L19.1606 49.0299Z" fill="#E58A7B"/>
<path id="Vector_2" d="M24.9006 88.759L31.1438 85.5976L29.5278 92.4502C29.5278 92.4502 25.245 93.6511 23.2581 91.5671L24.9006 88.759Z" fill="#E58A7B"/>
<path id="Vector_3" d="M36.8572 86.7191L35.1971 92.3884L29.5278 92.4502L31.1438 85.5976L36.8572 86.7191Z" fill="#E58A7B"/>
<path id="Vector_4" d="M45.6702 15.9679C46.0042 17.1917 46.469 18.3759 47.0567 19.5002C46.885 19.6949 46.6638 19.8395 46.4167 19.9188C46.1695 19.9981 45.9055 20.009 45.6526 19.9505L45.6702 15.9679Z" fill="#DF5753"/>
<path id="Vector_5" d="M45.4848 16.0209C45.8506 16.0209 46.1471 15.5662 46.1471 15.0053C46.1471 14.4445 45.8506 13.9898 45.4848 13.9898C45.119 13.9898 44.8225 14.4445 44.8225 15.0053C44.8225 15.5662 45.119 16.0209 45.4848 16.0209Z" fill="#263238"/>
<path id="Vector_6" d="M45.2905 14.0251L46.6328 13.6454C46.6328 13.6454 45.9793 14.6874 45.2905 14.0251Z" fill="#263238"/>
<path id="Vector_7" d="M28.4239 22.4496C29.2275 26.5558 30.0311 34.0884 27.1523 36.8347C27.1523 36.8347 28.2827 41.0028 35.9212 41.0028C44.3191 41.0028 39.9303 36.8347 39.9303 36.8347C35.3472 35.7397 35.462 32.3399 36.2656 29.1432L28.4239 22.4496Z" fill="#E58A7B"/>
<path id="Vector_8" d="M26.1898 13.0891C26.6137 19.9505 26.649 22.8646 30.1106 26.3881C35.3296 31.6865 43.6657 29.6731 45.2994 22.8558C46.7741 16.6744 45.838 6.50144 39.1179 3.77276C37.6428 3.16509 36.0371 2.94376 34.4526 3.12973C32.8681 3.3157 31.3572 3.90281 30.0629 4.83552C28.7686 5.76824 27.7336 7.01573 27.0559 8.45998C26.3782 9.90424 26.0801 11.4975 26.1898 13.0891Z" fill="#E58A7B"/>
<path id="Vector_9" d="M26.8698 5.37109C23.4258 6.62505 18.8339 5.689 20.6353 16.3123C22.5427 27.5625 19.611 31.2626 19.611 31.2626C19.611 31.2626 32.6715 34.0442 46.0058 31.0948C46.0058 31.0948 41.9349 23.9773 43.074 18.7319C44.5311 12.1089 43.3831 9.66279 43.3831 9.66279C43.3831 9.66279 31.709 3.60496 26.8698 5.37109Z" fill="#263238"/>
<path id="Vector_10" d="M41.4404 16.6655C41.444 17.9702 41.8175 19.247 42.5177 20.3479C43.4538 21.7785 44.5576 21.231 44.8313 19.7121C45.0786 18.3787 44.8932 16.0209 43.701 15.1025C42.5089 14.1841 41.458 15.0848 41.4404 16.6655Z" fill="#E58A7B"/>
<path id="Vector_11" d="M23.8762 6.5279C22.8872 3.74624 27.6027 -0.536631 37.5814 1.2295C47.56 2.99563 47.9927 11.3053 47.9927 11.3053L45.9793 8.90334L46.0677 11.4289L35.8153 13.3981L23.8762 6.5279Z" fill="#263238"/>
<path id="Vector_12" d="M24.7239 37.3028C24.665 36.8996 24.7659 36.4893 25.0051 36.1594C25.2443 35.8295 25.6028 35.606 26.0044 35.5366C29.1128 35.0244 36.1773 33.9824 39.7272 34.477C42.3764 34.8478 43.0652 36.3844 43.18 37.6472C43.198 37.8683 43.1684 38.0907 43.0933 38.2994C43.0182 38.5081 42.8992 38.6984 42.7445 38.8573C42.5897 39.0163 42.4027 39.1402 42.196 39.2209C41.9894 39.3016 41.7678 39.337 41.5463 39.325L26.1987 38.6362C25.8368 38.6179 25.4924 38.4752 25.2237 38.2322C24.955 37.9893 24.7784 37.6609 24.7239 37.3028Z" fill="#4CAF4F"/>
<path id="Vector_13" opacity="0.6" d="M24.7239 37.3028C24.665 36.8996 24.7659 36.4893 25.0051 36.1594C25.2443 35.8295 25.6028 35.606 26.0044 35.5366C29.1128 35.0244 36.1773 33.9824 39.7272 34.477C42.3764 34.8478 43.0652 36.3844 43.18 37.6472C43.198 37.8683 43.1684 38.0907 43.0933 38.2994C43.0182 38.5081 42.8992 38.6984 42.7445 38.8573C42.5897 39.0163 42.4027 39.1402 42.196 39.2209C41.9894 39.3016 41.7678 39.337 41.5463 39.325L26.1987 38.6362C25.8368 38.6179 25.4924 38.4752 25.2237 38.2322C24.955 37.9893 24.7784 37.6609 24.7239 37.3028Z" fill="black"/>
<path id="Vector_14" d="M33.5988 191.574L39.2945 195.53L48.8228 182.611L43.127 178.664L33.5988 191.574Z" fill="#E58A7B"/>
<path id="Vector_15" d="M20.3174 191.318L26.3311 194.745L34.7644 181.084L28.7507 177.657L20.3174 191.318Z" fill="#E58A7B"/>
<path id="Vector_16" d="M48.8139 182.611L43.9041 189.27L38.2083 185.322L43.1182 178.664L48.8139 182.611Z" fill="#CF6F64"/>
<path id="Vector_17" d="M28.7419 177.657L34.7644 181.092L30.4197 188.13L24.3972 184.695L28.7419 177.657Z" fill="#CF6F64"/>
<path id="Vector_18" d="M38.4026 80.4316C38.4026 80.4316 60.6382 108.451 56.4613 135.252C53.0968 156.896 33.5811 186.205 33.5811 186.205L24.406 181.649C30.8731 168.69 36.3921 155.279 40.9194 141.522C42.3155 137.251 42.7229 132.719 42.111 128.267C41.4991 123.815 39.8838 119.561 37.3871 115.825C26.1192 99.3734 8.06931 109.167 20.2115 80.4316H38.4026Z" fill="#4CAF4F"/>
<path id="Vector_19" opacity="0.6" d="M38.4026 80.4316C38.4026 80.4316 60.6382 108.451 56.4613 135.252C53.0968 156.896 33.5811 186.205 33.5811 186.205L24.406 181.649C30.8731 168.69 36.3921 155.279 40.9194 141.522C42.3155 137.251 42.7229 132.719 42.111 128.267C41.4991 123.815 39.8838 119.561 37.3871 115.825C26.1192 99.3734 8.06931 109.167 20.2115 80.4316H38.4026Z" fill="black"/>
<path id="Vector_20" opacity="0.4" d="M49.3085 98.4285L46.0765 95.2142C46.0765 95.4703 52.3374 134.122 54.0947 144.984C55.1317 141.811 55.9258 138.564 56.4702 135.27C58.5365 122.121 54.2183 108.69 49.3085 98.4285Z" fill="black"/>
<path id="Vector_21" d="M48.3283 80.4316C48.3283 80.4316 75.1028 115.648 75.8623 136.762C76.4892 154.424 46.7211 188.643 46.7211 188.643L38.067 183.044C38.067 183.044 55.4899 158.742 59.8788 138.891C58.1833 119.216 22.3308 80.4316 22.3308 80.4316H48.3283Z" fill="#4CAF4F"/>
<path id="Vector_22" opacity="0.6" d="M48.3283 80.4316C48.3283 80.4316 75.1028 115.648 75.8623 136.762C76.4892 154.424 46.7211 188.643 46.7211 188.643L38.067 183.044C38.067 183.044 55.4899 158.742 59.8788 138.891C58.1833 119.216 22.3308 80.4316 22.3308 80.4316H48.3283Z" fill="black"/>
<path id="Vector_23" d="M15.2045 38.4066C12.3433 39.0866 9.59698 49.4891 9.59698 49.4891L20.7854 56.9598C20.7854 56.9598 24.512 48.7296 23.205 45.1267C21.8539 41.3737 18.7985 37.55 15.2045 38.4066Z" fill="#4CAF4F"/>
<path id="Vector_24" opacity="0.2" d="M17.3945 45.109L16.6174 54.1781L20.7766 56.9686C21.925 54.3831 22.7753 51.6752 23.311 48.8974L17.3945 45.109Z" fill="black"/>
<path id="Vector_25" d="M51.6398 38.6097C51.6398 38.6097 54.9424 39.7665 48.3283 80.4228H20.1938C20.6706 68.943 20.6795 61.8785 15.2045 38.4066C19.1439 37.5947 23.137 37.0694 27.1524 36.8347C31.4062 36.5297 35.6764 36.5297 39.9303 36.8347C45.423 37.3381 51.6398 38.6097 51.6398 38.6097Z" fill="#4CAF4F"/>
<path id="Vector_26" d="M54.5009 45.109C55.1367 46.8751 55.8078 48.7737 56.5143 50.6017C57.2207 52.4296 57.8919 54.3106 58.6071 56.165L60.7706 61.7106L61.3181 63.0971L61.6007 63.7858L61.7332 64.1302C61.7332 64.1921 61.7332 64.1921 61.7332 64.1832C61.5718 63.9558 61.3603 63.7684 61.115 63.6357C60.7657 63.4302 60.3719 63.312 59.9671 63.2913C59.6307 63.2808 59.2961 63.3442 58.9869 63.4768C58.5806 63.6622 58.5806 63.7417 58.5895 63.7329C58.6629 63.674 58.7282 63.6057 58.7838 63.5298C59.2726 62.888 59.6956 62.1987 60.0465 61.4722C60.4616 60.6598 60.859 59.7944 61.2563 58.9202C62.0334 57.154 62.7487 55.3261 63.464 53.4805C64.1793 51.6349 64.8592 49.7716 65.5215 47.8907L67.5349 42.2567L70.9347 43.1398C70.2636 47.1666 69.3982 51.0874 68.3562 55.0788C67.8528 57.0657 67.2612 59.035 66.59 61.0219C66.2545 62.0197 65.8836 63.0088 65.4597 64.0243C65.0179 65.1265 64.4739 66.1849 63.8349 67.1857C63.6 67.5225 63.3402 67.8413 63.0578 68.1394C62.6068 68.6264 62.0595 69.0143 61.4506 69.2785C60.9103 69.5105 60.325 69.6191 59.7375 69.5964C59.0793 69.5719 58.4381 69.3805 57.8742 69.0401C57.2089 68.6249 56.6568 68.0515 56.267 67.3711C56.1345 67.1415 56.0198 66.9119 55.9403 66.7441L55.7725 66.4086L55.4369 65.7198L54.7658 64.351C53.8827 62.5142 52.9997 60.6598 52.2314 58.7965C51.4631 56.9333 50.6507 55.0435 49.8913 53.1449C49.1319 51.2463 48.4519 49.3477 47.8073 47.299L54.5009 45.109Z" fill="#E58A7B"/>
<path id="Vector_27" d="M51.6398 38.6097C55.0219 39.4133 58.8279 49.4096 58.8279 49.4096L48.7698 57.9665C48.7698 57.9665 42.2616 47.0695 43.5774 43.4754C44.9461 39.7312 47.2244 37.5588 51.6398 38.6097Z" fill="#4CAF4F"/>
<path id="Vector_28" d="M69.1333 39.0954L72.6656 36.1459L75.1205 39.9696L73.3102 43.1575C73.3102 43.1575 70.4314 45.8067 67.8882 44.4556C67.4846 43.5483 67.3877 42.5341 67.6124 41.5668C67.8371 40.5995 68.3711 39.7318 69.1333 39.0954Z" fill="#E58A7B"/>
<path id="Vector_29" d="M79.0413 36.1548L78.7763 37.1173L73.1865 38.0533L72.639 36.1459L79.0413 36.1548Z" fill="#E58A7B"/>
<path id="Vector_30" d="M47.4099 189.093L37.3253 182.576L39.1355 179.432L50.4653 186.4L47.4099 189.093Z" fill="#4CAF4F"/>
<path id="Vector_31" d="M30.2784 194.285C29.3936 194.177 28.5434 193.876 27.7882 193.402C27.757 193.391 27.73 193.371 27.7109 193.344C27.6917 193.317 27.6815 193.285 27.6815 193.252C27.6815 193.219 27.6917 193.187 27.7109 193.16C27.73 193.133 27.757 193.113 27.7882 193.102C28.0619 193.014 30.4374 192.281 31.1262 192.846C31.2036 192.91 31.2624 192.994 31.2966 193.089C31.3307 193.184 31.339 193.286 31.3204 193.385C31.3082 193.544 31.2555 193.697 31.1674 193.83C31.0793 193.963 30.9587 194.071 30.8171 194.144C30.6517 194.234 30.4668 194.283 30.2784 194.285ZM28.2915 193.314C29.3953 193.879 30.2784 194.082 30.7023 193.87C30.7946 193.819 30.8723 193.745 30.9279 193.656C30.9835 193.566 31.0153 193.464 31.0202 193.358C31.0202 193.217 31.0202 193.155 30.9407 193.12C30.5698 192.819 29.2452 193.049 28.2739 193.314H28.2915Z" fill="#263238"/>
<path id="Vector_32" d="M27.85 193.464C27.8034 193.463 27.7589 193.444 27.7263 193.411C27.7132 193.387 27.7063 193.359 27.7063 193.332C27.7063 193.304 27.7132 193.277 27.7263 193.252C27.7263 193.173 28.3003 191.256 29.201 190.824C29.3161 190.771 29.4411 190.744 29.5675 190.744C29.694 190.744 29.8189 190.771 29.934 190.824C30.058 190.863 30.1653 190.942 30.239 191.05C30.3126 191.157 30.3482 191.286 30.3402 191.415C30.2784 192.21 28.6624 193.305 27.9206 193.491L27.85 193.464ZM29.5631 191.053C29.4772 191.056 29.3929 191.077 29.3158 191.115C28.7683 191.38 28.318 192.413 28.0972 193.04C28.8743 192.713 29.9428 191.848 29.9781 191.362C29.9781 191.283 29.9781 191.186 29.775 191.097C29.709 191.062 29.6373 191.038 29.5631 191.027V191.053Z" fill="#263238"/>
<path id="Vector_33" d="M42.8797 198.1C41.8819 198.1 40.4955 196.82 39.736 196.034C39.7166 196.007 39.7062 195.974 39.7062 195.941C39.7062 195.908 39.7166 195.875 39.736 195.848C39.7535 195.82 39.7782 195.797 39.8078 195.781C39.8373 195.766 39.8705 195.758 39.9038 195.76C40.257 195.76 43.3213 196.219 43.754 197.085C43.7998 197.162 43.824 197.251 43.824 197.341C43.824 197.431 43.7998 197.519 43.754 197.597C43.6891 197.732 43.591 197.848 43.469 197.934C43.347 198.021 43.205 198.075 43.0563 198.091L42.8797 198.1ZM40.3188 196.157C41.4315 197.235 42.4117 197.835 42.968 197.765C43.0655 197.752 43.1583 197.715 43.2383 197.658C43.3184 197.602 43.3833 197.526 43.4272 197.438C43.447 197.408 43.4575 197.372 43.4575 197.336C43.4575 197.3 43.447 197.265 43.4272 197.235C43.1976 196.758 41.564 196.352 40.3188 196.157Z" fill="#263238"/>
<path id="Vector_34" d="M40.416 196.113C40.2178 196.119 40.0195 196.104 39.8244 196.069C39.7971 196.065 39.7714 196.054 39.7497 196.037C39.728 196.02 39.7111 195.997 39.7007 195.972C39.6875 195.946 39.6807 195.917 39.6807 195.888C39.6807 195.859 39.6875 195.83 39.7007 195.804C39.7537 195.742 40.9459 194.303 42.0762 194.206C42.3962 194.181 42.7132 194.282 42.9592 194.488C43.3036 194.789 43.286 195.054 43.1977 195.221C42.9769 195.822 41.4492 196.113 40.416 196.113ZM40.1864 195.787C41.1755 195.84 42.7561 195.513 42.9592 195.08C42.9592 195.08 43.0299 194.939 42.8003 194.745C42.7089 194.665 42.6022 194.605 42.4867 194.569C42.3713 194.532 42.2496 194.52 42.1292 194.533C41.3677 194.745 40.6897 195.186 40.1864 195.795V195.787Z" fill="#263238"/>
<path id="Vector_35" d="M28.0884 192.51L20.6 190.391C20.4709 190.352 20.332 190.362 20.2098 190.419C20.0875 190.476 19.9907 190.576 19.9377 190.7L17.4122 196.378C17.3528 196.524 17.325 196.68 17.3304 196.837C17.3359 196.994 17.3745 197.148 17.4437 197.289C17.513 197.43 17.6112 197.555 17.7321 197.655C17.853 197.755 17.9938 197.829 18.1451 197.871C20.7943 198.559 22.0659 198.754 25.3597 199.699C27.3908 200.264 30.2872 201.315 33.0866 202.109C35.8859 202.904 36.8219 200.175 35.7358 199.593C30.8259 196.996 30.4374 195.177 29.0951 193.234C28.8547 192.883 28.4984 192.626 28.0884 192.51Z" fill="#4CAF4F"/>
<path id="Vector_36" d="M39.9391 195.001L33.5457 190.585C33.4373 190.506 33.3037 190.47 33.1703 190.483C33.0368 190.496 32.9127 190.558 32.8216 190.656L28.5829 195.213C28.4796 195.33 28.4026 195.469 28.3569 195.619C28.3112 195.768 28.298 195.926 28.318 196.082C28.3381 196.237 28.391 196.386 28.4732 196.52C28.5554 196.653 28.6651 196.767 28.7949 196.855C31.0467 198.365 32.2123 198.974 35.0293 200.926C36.7954 202.127 40.2129 204.794 42.5972 206.454C44.9814 208.114 46.7564 205.836 45.9087 204.935C42.1115 200.882 41.2814 198.339 40.6544 196.034C40.5456 195.616 40.2922 195.25 39.9391 195.001Z" fill="#4CAF4F"/>
<path id="Vector_37" d="M34.7556 186.788L23.2316 181.057L24.4237 177.931L36.7336 183.971L34.7556 186.788Z" fill="#4CAF4F"/>
<path id="Vector_38" d="M19.7699 78.7715L18.7985 81.3147C18.7014 81.509 18.931 81.7121 19.2577 81.7121H48.4696C48.7256 81.7121 48.9376 81.5885 48.9552 81.4295L49.2025 78.904C49.2025 78.7362 48.9994 78.586 48.7256 78.586H20.2291C20.1433 78.578 20.0568 78.5906 19.9769 78.6229C19.897 78.6551 19.826 78.7061 19.7699 78.7715Z" fill="#4CAF4F"/>
<path id="Vector_39" opacity="0.4" d="M19.7699 78.7715L18.7985 81.3147C18.7014 81.509 18.931 81.7121 19.2577 81.7121H48.4696C48.7256 81.7121 48.9376 81.5885 48.9552 81.4295L49.2025 78.904C49.2025 78.7362 48.9994 78.586 48.7256 78.586H20.2291C20.1433 78.578 20.0568 78.5906 19.9769 78.6229C19.897 78.6551 19.826 78.7061 19.7699 78.7715Z" fill="white"/>
<path id="Vector_40" d="M24.3707 81.9594H23.6025C23.4523 81.9594 23.3375 81.8799 23.3464 81.7828L23.7084 78.5066C23.7084 78.4183 23.8497 78.3388 23.9998 78.3388H24.7681C24.9182 78.3388 25.033 78.4183 25.0242 78.5066L24.6621 81.7828C24.6533 81.8799 24.5208 81.9594 24.3707 81.9594Z" fill="#4CAF4F"/>
<path id="Vector_41" d="M42.3853 81.9594H41.6258C41.4757 81.9594 41.3609 81.8799 41.3697 81.7828L41.723 78.5066C41.723 78.4183 41.8731 78.3388 42.0232 78.3388H42.7827C42.9328 78.3388 43.0564 78.4183 43.0387 78.5066L42.6855 81.7828C42.6414 81.8799 42.5442 81.9594 42.3853 81.9594Z" fill="#4CAF4F"/>
<g id="Vector_42" style="mix-blend-mode:multiply">
<path d="M23.6996 231.507C36.7652 231.507 47.3569 230.74 47.3569 229.793C47.3569 228.847 36.7652 228.08 23.6996 228.08C10.634 228.08 0.0422363 228.847 0.0422363 229.793C0.0422363 230.74 10.634 231.507 23.6996 231.507Z" fill="#F5F5F5"/>
</g>
<path id="Vector_43" d="M38.1112 227.374C33.9255 226.155 29.2805 224.592 26.4724 222.958C26.3929 222.905 26.3046 222.879 26.2251 222.835V203.884H34.6937C35.3366 203.846 35.9406 203.564 36.3823 203.095C36.824 202.627 37.07 202.007 37.07 201.363C37.07 200.719 36.824 200.099 36.3823 199.631C35.9406 199.162 35.3366 198.88 34.6937 198.842H26.2693V112.46H21.1828V198.842H12.7672C12.4236 198.822 12.0794 198.872 11.7558 198.989C11.4323 199.107 11.1362 199.289 10.8857 199.525C10.6352 199.761 10.4356 200.046 10.2992 200.362C10.1627 200.678 10.0924 201.019 10.0924 201.363C10.0924 201.707 10.1627 202.048 10.2992 202.364C10.4356 202.68 10.6352 202.965 10.8857 203.201C11.1362 203.437 11.4323 203.619 11.7558 203.737C12.0794 203.854 12.4236 203.905 12.7672 203.884H21.1828V222.808C21.1033 222.808 21.0239 222.879 20.9444 222.932C18.0921 224.592 13.4825 226.155 9.29675 227.347C9.014 227.433 8.77121 227.617 8.61233 227.866C8.45345 228.115 8.38899 228.412 8.43061 228.705C8.47224 228.997 8.6172 229.265 8.83925 229.46C9.06131 229.655 9.34577 229.764 9.64115 229.767H37.7668C38.0491 229.748 38.3162 229.632 38.5236 229.44C38.731 229.247 38.8661 228.99 38.9064 228.71C38.9467 228.43 38.8898 228.144 38.745 227.901C38.6003 227.658 38.3766 227.472 38.1112 227.374Z" fill="#E0E0E0"/>
<path id="Vector_44" d="M39.4093 103.665H8.00751C5.4812 103.665 3.43323 105.713 3.43323 108.239V117.573C3.43323 120.1 5.4812 122.148 8.00751 122.148H39.4093C41.9356 122.148 43.9836 120.1 43.9836 117.573V108.239C43.9836 105.713 41.9356 103.665 39.4093 103.665Z" fill="#4CAF4F"/>
<path id="Vector_45" d="M7.71606 122.156V123.764C7.71606 125.088 9.15547 126.166 10.9216 126.166H36.5305C38.2966 126.166 39.736 125.088 39.736 123.764V122.156H7.71606Z" fill="#4CAF4F"/>
<path id="Vector_46" opacity="0.3" d="M7.71606 122.156V123.764C7.71606 125.088 9.15547 126.166 10.9216 126.166H36.5305C38.2966 126.166 39.736 125.088 39.736 123.764V122.156H7.71606Z" fill="white"/>
</g>
</svg>
