<?xml version="1.0" encoding="utf-8"?><svg viewBox="0 0 124 232" xmlns="http://www.w3.org/2000/svg" xmlns:xlink="http://www.w3.org/1999/xlink"><style>:root>svg{display:none}:root>svg:target{display:block}</style><svg viewBox="0 0 124 228" id="Screen" xmlns="http://www.w3.org/2000/svg"><path d="M49.245.75h-5.643v.909h5.643v-.91zm73.046 35.999l-.683 15.155.908.041.683-15.155-.908-.041zM120.535 4.83H16.333L6.637 221.815H110.84l9.696-216.987z"/><path opacity=".56" d="M117.427 7.814H13.225L3.529 224.8H107.73l9.696-216.987z"/><path opacity=".07" d="M114.318 10.79H10.117L.412 227.777h104.201l9.705-216.987z"/><path d="M102.459 105.428H13.516l-.742 16.602h88.943l.742-16.602zM62.43 93.312H14.054l-.327 7.427h48.375l.326-7.427zM100.454 150.235H11.512l-.742 16.601h88.942l.742-16.601z"/><path opacity=".47" d="M84.144 189.257h-59.81l-.892 19.896h59.81l.892-19.896z"/><path d="M80.144 212.244h-59.81a.178.178 0 01-.08 0 .126.126 0 010-.08l.883-19.904a.097.097 0 01.032-.072.112.112 0 01.034-.021.091.091 0 01.04-.004h59.81a.074.074 0 01.07 0 .069.069 0 010 .07l-.865 19.949a.125.125 0 01-.047.049.12.12 0 01-.067.013zm-59.704-.212h59.598l.883-19.693H21.323l-.883 19.693zM51.983 138.119H12.05l-.326 7.435h39.923l.336-7.435zM83.005 51.8a23.427 23.427 0 01-4.919 13.29 23.737 23.737 0 01-18.72 9.334 21.468 21.468 0 01-21.6-22.625 23.843 23.843 0 0123.621-22.624A21.448 21.448 0 0183.005 51.8z"/><path d="M85.133 33.908a6.18 6.18 0 01-1.307 3.533 6.333 6.333 0 01-4.98 2.481 5.722 5.722 0 01-4.751-2.481 5.836 5.836 0 01-.99-3.533 6.34 6.34 0 016.28-6.004 5.704 5.704 0 015.748 6.004zM23.098 113.729a2.818 2.818 0 01-2.782 2.649 2.503 2.503 0 01-1.003-.196 2.505 2.505 0 01-1.386-1.443 2.518 2.518 0 01-.154-1.01 2.798 2.798 0 012.781-2.649 2.514 2.514 0 011.843.776 2.526 2.526 0 01.7 1.873zm11.903 0a2.807 2.807 0 01-2.781 2.649 2.525 2.525 0 01-1.84-.777 2.515 2.515 0 01-.695-1.872 2.798 2.798 0 012.773-2.649 2.501 2.501 0 011.846.773 2.512 2.512 0 01.697 1.876zm11.913 0a2.808 2.808 0 01-2.782 2.649 2.531 2.531 0 01-1.842-.777 2.524 2.524 0 01-.701-1.872 2.807 2.807 0 012.782-2.649 2.502 2.502 0 011.845.773 2.513 2.513 0 01.698 1.876zm-25.821 44.807a2.818 2.818 0 01-2.782 2.649 2.531 2.531 0 01-1.842-.777 2.526 2.526 0 01-.7-1.872 2.808 2.808 0 012.78-2.65 2.531 2.531 0 011.843.777 2.526 2.526 0 01.701 1.873zm11.904 0a2.809 2.809 0 01-2.773 2.649 2.52 2.52 0 01-2.543-2.649 2.807 2.807 0 012.781-2.65 2.525 2.525 0 011.84.777 2.519 2.519 0 01.695 1.873zm11.939 0a2.808 2.808 0 01-2.782 2.649 2.544 2.544 0 01-1.84-.779 2.54 2.54 0 01-.703-1.87 2.819 2.819 0 012.782-2.65 2.52 2.52 0 012.543 2.65zm11.886 0a2.818 2.818 0 01-2.782 2.649 2.544 2.544 0 01-1.84-.78 2.53 2.53 0 01-.703-1.869 2.819 2.819 0 012.782-2.65 2.531 2.531 0 011.842.777 2.526 2.526 0 01.7 1.873zm11.957 0a2.818 2.818 0 01-2.782 2.649 2.52 2.52 0 01-2.543-2.649 2.807 2.807 0 012.781-2.65 2.532 2.532 0 011.843.777 2.526 2.526 0 01.7 1.873zM66.971 50.621c3.696-3.614 3.892-9.408.438-12.94-3.454-3.532-9.25-3.466-12.946.149-3.697 3.614-3.893 9.408-.438 12.94 3.454 3.532 9.25 3.465 12.946-.149zM78.086 65.09a23.737 23.737 0 01-18.72 9.334 21.432 21.432 0 01-17.874-9.335c4.291-4.273 11.082-7.064 18.606-7.064 7.524 0 14.076 2.79 17.988 7.065z"/><path opacity=".1" d="M66.971 50.621c3.696-3.614 3.892-9.408.438-12.94-3.454-3.532-9.25-3.466-12.946.149-3.697 3.614-3.893 9.408-.438 12.94 3.454 3.532 9.25 3.465 12.946-.149zM78.086 65.09a23.737 23.737 0 01-18.72 9.334 21.432 21.432 0 01-17.874-9.335c4.291-4.273 11.082-7.064 18.606-7.064 7.524 0 14.076 2.79 17.988 7.065z"/></svg><svg viewBox="0 0 80 232" id="character-1" xmlns="http://www.w3.org/2000/svg"><path d="M19.16 49.03a117.55 117.55 0 00-2.49 5.82c-.768 1.96-1.554 3.982-2.234 5.995a76.164 76.164 0 00-3.161 12.187l-.194 1.298c-.019.222.002.447.061.662.209.732.537 1.424.972 2.049a25.86 25.86 0 003.92 4.415 59.464 59.464 0 004.875 4.071 113.94 113.94 0 005.237 3.78l-1.652 3.1a62.583 62.583 0 01-11.877-6.81 28.601 28.601 0 01-5.298-5.015 12.584 12.584 0 01-2.11-3.77 8.565 8.565 0 01-.425-2.65v-1.104l.089-.883A69.075 69.075 0 017.76 58.629c.689-2.172 1.422-4.336 2.26-6.447.84-2.11 1.705-4.177 2.774-6.322l6.367 3.17z"/><path d="M24.9 88.759l6.244-3.161-1.616 6.852s-4.283 1.201-6.27-.883l1.643-2.808z"/><path d="M36.857 86.72l-1.66 5.668-5.67.062 1.617-6.852 5.713 1.121zM45.67 15.968a17.664 17.664 0 001.387 3.532 1.44 1.44 0 01-1.404.45l.017-3.982z"/><path d="M45.485 16.02c.366 0 .662-.454.662-1.015 0-.56-.296-1.015-.662-1.015-.366 0-.663.454-.663 1.015 0 .561.297 1.016.663 1.016z"/><path d="M45.29 14.025l1.343-.38s-.654 1.042-1.343.38zM28.424 22.45c.803 4.106 1.607 11.638-1.272 14.385 0 0 1.13 4.168 8.77 4.168 8.397 0 4.008-4.168 4.008-4.168-4.583-1.095-4.468-4.495-3.664-7.692l-7.842-6.693z"/><path d="M26.19 13.09c.424 6.86.459 9.775 3.92 13.298 5.22 5.298 13.556 3.285 15.19-3.532 1.474-6.182.538-16.355-6.182-19.083a9.378 9.378 0 00-12.928 9.316z"/><path d="M26.87 5.371c-3.444 1.254-8.036.318-6.235 10.941 1.908 11.25-1.024 14.95-1.024 14.95s13.06 2.782 26.395-.167c0 0-4.071-7.118-2.932-12.363 1.457-6.623.31-9.07.31-9.07S31.708 3.606 26.87 5.373z"/><path d="M41.44 16.666a6.897 6.897 0 001.078 3.682c.936 1.43 2.04.883 2.313-.636.248-1.333.062-3.691-1.13-4.61-1.192-.918-2.243-.017-2.26 1.564zM23.876 6.528c-.989-2.782 3.727-7.065 13.705-5.298 9.979 1.766 10.412 10.075 10.412 10.075l-2.014-2.402.089 2.526-10.253 1.97-11.939-6.871zM24.724 37.303a1.563 1.563 0 011.28-1.766c3.109-.513 10.173-1.555 13.723-1.06 2.65.37 3.338 1.907 3.453 3.17a1.554 1.554 0 01-1.634 1.678L26.2 38.636a1.572 1.572 0 01-1.475-1.333z"/><path opacity=".6" d="M24.724 37.303a1.563 1.563 0 011.28-1.766c3.109-.513 10.173-1.555 13.723-1.06 2.65.37 3.338 1.907 3.453 3.17a1.554 1.554 0 01-1.634 1.678L26.2 38.636a1.572 1.572 0 01-1.475-1.333z"/><path d="M33.599 191.574l5.696 3.956 9.528-12.919-5.696-3.947-9.528 12.91zm-13.282-.256l6.014 3.427 8.433-13.661-6.013-3.427-8.434 13.661z"/><path d="M48.814 182.611l-4.91 6.659-5.696-3.948 4.91-6.658 5.696 3.947zm-20.072-4.954l6.022 3.435-4.344 7.038-6.023-3.435 4.345-7.038z"/><path d="M38.403 80.432s22.235 28.019 18.058 54.82c-3.364 21.644-22.88 50.953-22.88 50.953l-9.175-4.556a299.613 299.613 0 0016.513-40.127 29.66 29.66 0 00-3.532-25.697C26.12 99.373 8.07 109.167 20.212 80.432h18.19z"/><path opacity=".6" d="M38.403 80.432s22.235 28.019 18.058 54.82c-3.364 21.644-22.88 50.953-22.88 50.953l-9.175-4.556a299.613 299.613 0 0016.513-40.127 29.66 29.66 0 00-3.532-25.697C26.12 99.373 8.07 109.167 20.212 80.432h18.19z"/><path opacity=".4" d="M49.309 98.428l-3.232-3.214c0 .256 6.26 38.908 8.018 49.77a65.813 65.813 0 002.375-9.714c2.066-13.149-2.252-26.58-7.161-36.842z"/><path d="M48.328 80.432s26.775 35.216 27.534 56.33c.627 17.662-29.14 51.881-29.14 51.881l-8.655-5.599s17.423-24.302 21.812-44.153c-1.696-19.675-37.548-58.46-37.548-58.46h25.997z"/><path opacity=".6" d="M48.328 80.432s26.775 35.216 27.534 56.33c.627 17.662-29.14 51.881-29.14 51.881l-8.655-5.599s17.423-24.302 21.812-44.153c-1.696-19.675-37.548-58.46-37.548-58.46h25.997z"/><path d="M15.204 38.407c-2.86.68-5.607 11.082-5.607 11.082l11.188 7.47s3.727-8.23 2.42-11.832c-1.351-3.753-4.406-7.577-8-6.72z"/><path opacity=".2" d="M17.395 45.109l-.778 9.07 4.16 2.79a37.27 37.27 0 002.534-8.072l-5.916-3.788z"/><path d="M51.64 38.61s3.302 1.157-3.312 41.813H20.194c.477-11.48.486-18.544-4.99-42.016a83.258 83.258 0 0111.948-1.572 89.336 89.336 0 0112.778 0c5.493.503 11.71 1.775 11.71 1.775z"/><path d="M54.5 45.109c.637 1.766 1.308 3.665 2.014 5.493.707 1.828 1.378 3.709 2.093 5.563l2.164 5.546.547 1.386.283.689.132.344v.053a1.82 1.82 0 00-.618-.547 2.517 2.517 0 00-1.148-.345 2.305 2.305 0 00-.98.186c-.406.185-.406.265-.398.256.074-.059.14-.127.195-.203.489-.642.912-1.331 1.263-2.058.415-.812.812-1.678 1.21-2.552.776-1.766 1.492-3.594 2.207-5.44a190.971 190.971 0 002.058-5.59l2.013-5.633 3.4.883c-.671 4.027-1.537 7.947-2.579 11.939a79.689 79.689 0 01-1.766 5.943 44.857 44.857 0 01-1.13 3.002 19.034 19.034 0 01-1.625 3.162 8.245 8.245 0 01-.777.953 4.788 4.788 0 01-1.607 1.14c-.54.231-1.126.34-1.714.317a3.885 3.885 0 01-1.863-.556 4.751 4.751 0 01-1.607-1.669 8.973 8.973 0 01-.327-.627l-.167-.335-.336-.69-.671-1.368c-.883-1.837-1.766-3.691-2.535-5.554-.768-1.864-1.58-3.753-2.34-5.652a81.003 81.003 0 01-2.084-5.846l6.694-2.19z"/><path d="M51.64 38.61c3.382.803 7.188 10.8 7.188 10.8L48.77 57.967s-6.508-10.898-5.193-14.492c1.37-3.744 3.647-5.916 8.063-4.865zM69.133 39.095l3.533-2.95 2.455 3.825-1.81 3.188s-2.88 2.649-5.423 1.298a4.566 4.566 0 011.245-5.36z"/><path d="M79.041 36.155l-.265.962-5.59.936-.547-1.907 6.402.009zM47.41 189.093l-10.085-6.517 1.81-3.144 11.33 6.968-3.055 2.693zM30.278 194.285a6.066 6.066 0 01-2.49-.883.159.159 0 010-.3c.274-.088 2.65-.821 3.338-.256a.562.562 0 01.194.539.935.935 0 01-.503.759c-.165.09-.35.139-.539.141zm-1.986-.971c1.103.565 1.986.768 2.41.556a.62.62 0 00.318-.512c0-.141 0-.203-.08-.238-.37-.301-1.695-.071-2.666.194h.017z"/><path d="M27.85 193.464a.18.18 0 01-.124-.053.167.167 0 010-.159c0-.079.574-1.996 1.475-2.428a.876.876 0 01.733 0 .579.579 0 01.406.591c-.062.795-1.678 1.89-2.42 2.076l-.07-.027zm1.713-2.411a.607.607 0 00-.247.062c-.548.265-.998 1.298-1.219 1.925.777-.327 1.846-1.192 1.881-1.678 0-.079 0-.176-.203-.265a.66.66 0 00-.212-.07v.026zM42.88 198.1c-.998 0-2.385-1.28-3.144-2.066a.16.16 0 010-.186.188.188 0 01.168-.088c.353 0 3.417.459 3.85 1.325a.502.502 0 010 .512.877.877 0 01-.698.494l-.176.009zm-2.561-1.943c1.112 1.078 2.093 1.678 2.649 1.608a.604.604 0 00.46-.327.186.186 0 000-.203c-.23-.477-1.864-.883-3.11-1.078z"/><path d="M40.416 196.113a2.86 2.86 0 01-.592-.044.158.158 0 01-.123-.097.186.186 0 010-.168c.053-.062 1.245-1.501 2.375-1.598.32-.025.637.076.883.282.345.301.327.566.239.733-.221.601-1.749.892-2.782.892zm-.23-.326c.99.053 2.57-.274 2.773-.707 0 0 .07-.141-.159-.335a.869.869 0 00-.67-.212 3.867 3.867 0 00-1.944 1.262v-.008zM28.088 192.51l-7.488-2.119a.548.548 0 00-.662.309l-2.526 5.678a1.115 1.115 0 00.733 1.493c2.65.688 3.92.883 7.215 1.828 2.03.565 4.927 1.616 7.727 2.41 2.799.795 3.735-1.934 2.649-2.516-4.91-2.597-5.299-4.416-6.64-6.359a1.823 1.823 0 00-1.008-.724z"/><path d="M39.94 195.001l-6.394-4.416a.547.547 0 00-.724.071l-4.24 4.557a1.097 1.097 0 00-.264.869 1.11 1.11 0 00.477.773c2.252 1.51 3.417 2.119 6.234 4.071 1.766 1.201 5.184 3.868 7.568 5.528 2.384 1.66 4.16-.618 3.312-1.519-3.797-4.053-4.628-6.596-5.255-8.901a1.827 1.827 0 00-.715-1.033zm-5.184-8.213l-11.524-5.731 1.192-3.126 12.31 6.04-1.978 2.817zM19.77 78.772l-.971 2.543c-.098.194.132.397.459.397H48.47c.256 0 .468-.124.485-.282l.248-2.526c0-.168-.204-.318-.477-.318H20.229a.54.54 0 00-.46.186z"/><path opacity=".4" d="M19.77 78.772l-.971 2.543c-.098.194.132.397.459.397H48.47c.256 0 .468-.124.485-.282l.248-2.526c0-.168-.204-.318-.477-.318H20.229a.54.54 0 00-.46.186z"/><path d="M24.37 81.96h-.768c-.15 0-.265-.08-.256-.177l.362-3.276c0-.089.142-.168.292-.168h.768c.15 0 .265.08.256.168l-.362 3.276c-.009.097-.141.176-.291.176zm18.015 0h-.76c-.15 0-.264-.08-.255-.177l.353-3.276c0-.089.15-.168.3-.168h.76c.15 0 .273.08.256.168l-.354 3.276c-.044.097-.14.176-.3.176zM23.7 231.507c13.065 0 23.657-.767 23.657-1.714 0-.946-10.592-1.713-23.657-1.713-13.066 0-23.658.767-23.658 1.713 0 .947 10.592 1.714 23.658 1.714z"/><path d="M38.111 227.374c-4.185-1.219-8.83-2.782-11.639-4.416-.08-.053-.167-.079-.247-.123v-18.951h8.469a2.524 2.524 0 001.688-4.253 2.524 2.524 0 00-1.688-.789h-8.425V112.46h-5.086v86.382h-8.416a2.535 2.535 0 00-2.468 1.52 2.525 2.525 0 002.468 3.522h8.416v18.924c-.08 0-.16.071-.239.124-2.852 1.66-7.461 3.223-11.647 4.415a1.24 1.24 0 00-.866 1.358 1.238 1.238 0 001.21 1.062h28.126a1.237 1.237 0 00.344-2.393z"/><path d="M39.41 103.665H8.007a4.574 4.574 0 00-4.575 4.574v9.334a4.574 4.574 0 004.575 4.575h31.401a4.574 4.574 0 004.575-4.575v-9.334a4.574 4.574 0 00-4.575-4.574zM7.716 122.156v1.608c0 1.324 1.44 2.402 3.206 2.402H36.53c1.766 0 3.205-1.078 3.205-2.402v-1.608H7.716z"/><path opacity=".3" d="M7.716 122.156v1.608c0 1.324 1.44 2.402 3.206 2.402H36.53c1.766 0 3.205-1.078 3.205-2.402v-1.608H7.716z"/></svg><svg viewBox="0 0 35 24" id="icon" xmlns="http://www.w3.org/2000/svg"><path d="M18.786 13.134l-5.39 9.233-5.392-9.233h10.782zm1.444-.825H6.554L13.395 24l6.835-11.691zM28.16 1.65l5.39 9.233H22.768L28.16 1.65zm0-1.65l-6.842 11.691H35L28.16 0zM0 0l5.736 10.34L12.004.26 0 0zm13.396.906l6.016 10.283H7.367L13.396.906zm7.566 12.528L26.983 24h-12.33l6.121-10.566h.188zm1.303-.641l5.894 10.405 5.976-10.405h-11.87z"/></svg><svg viewBox="0 0 18 18" id="send" xmlns="http://www.w3.org/2000/svg"><g clip-path="url(#da)"><path fill-rule="evenodd" clip-rule="evenodd" d="M17.03.97a.75.75 0 01.178.778l-5.25 15a.75.75 0 01-1.393.057l-2.883-6.487-6.487-2.883a.75.75 0 01.057-1.393l15-5.25a.75.75 0 01.778.178zM9.145 9.916l2.022 4.55 3.54-10.112-5.562 5.562zm4.5-6.622L3.534 6.833l4.55 2.022 5.563-5.561z"/></g><defs><clipPath id="da"><path d="M0 0h18v18H0z"/></clipPath></defs></svg></svg>